<svg xmlns="http://www.w3.org/2000/svg" viewBox="0 0 64 64" width="64" height="64">
  <rect width="64" height="64" rx="12" fill="#0B1F3F"/>
  <g fill="#FFFFFF">
    <path fill-rule="evenodd" d="M14 14h16v16H14zm4 4v8h8v-8z"/>
    <rect x="20" y="20" width="4" height="4"/>
    <path fill-rule="evenodd" d="M34 14h16v16H34zm4 4v8h8v-8z"/>
    <rect x="40" y="20" width="4" height="4"/>
    <path fill-rule="evenodd" d="M14 34h16v16H14zm4 4v8h8v-8z"/>
    <rect x="20" y="40" width="4" height="4"/>
    <rect x="34" y="34" width="4" height="4"/><rect x="42" y="34" width="4" height="4"/><rect x="38" y="38" width="4" height="4"/><rect x="46" y="38" width="4" height="4"/><rect x="34" y="42" width="4" height="4"/><rect x="42" y="42" width="4" height="4"/><rect x="38" y="46" width="4" height="4"/><rect x="46" y="46" width="4" height="4"/>
  </g>
  <rect x="14" y="54" width="36" height="3" rx="1.5" fill="#19C8FF"/>
</svg>
